{
  "accessors": [
    {
      "bufferView": 2,
      "componentType": 5126,
      "count": 65532,
      "max": [
        0.5781742334365845,
        1.4297144412994385,
        0.5756350755691528
      ],
      "min": [
        -1.4112653732299805,
        -0.8498467206954956,
        -1.0064185857772827
      ],
      "type": "VEC3"
    },
    {
      "bufferView": 2,
      "byteOffset": 786384,
      "componentType": 5126,
      "count": 65532,
      "max": [
        1.0,
        0.9999690651893616,
        1.0
      ],
      "min": [
        -1.0,
        -1.0,
        -0.9994946718215942
      ],
      "type": "VEC3"
    },
    {
      "bufferView": 1,
      "componentType": 5126,
      "count": 65532,
      "max": [
        0.6656494140625,
        0.9371337890625
      ],
      "min": [
        0.0628662109375,
        0.3656005859375
      ],
      "type": "VEC2"
    },
    {
      "bufferView": 0,
      "componentType": 5125,
      "count": 169107,
      "type": "SCALAR"
    },
    {
      "bufferView": 2,
      "byteOffset": 1572768,
      "componentType": 5126,
      "count": 65532,
      "max": [
        0.6194851398468018,
        0.23480582237243652,
        0.9154862761497498
      ],
      "min": [
        -0.9989047050476074,
        -0.7070632576942444,
        -0.7752698659896851
      ],
      "type": "VEC3"
    },
    {
      "bufferView": 2,
      "byteOffset": 2359152,
      "componentType": 5126,
      "count": 65532,
      "max": [
        0.9999985098838806,
        0.9999986886978149,
        0.999998927116394
      ],
      "min": [
        -1.0,
        -0.9999217987060547,
        -0.9999144673347473
      ],
      "type": "VEC3"
    },
    {
      "bufferView": 1,
      "byteOffset": 524256,
      "componentType": 5126,
      "count": 65532,
      "max": [
        0.7105712890625,
        0.9820556640625
      ],
      "min": [
        0.0159912109375,
        0.3187255859375
      ],
      "type": "VEC2"
    },
    {
      "bufferView": 0,
      "byteOffset": 676428,
      "componentType": 5125,
      "count": 182697,
      "type": "SCALAR"
    },
    {
      "bufferView": 2,
      "byteOffset": 3145536,
      "componentType": 5126,
      "count": 65532,
      "max": [
        0.7708076238632202,
        0.22559750080108643,
        1.1636008024215698
      ],
      "min": [
        0.07299470901489258,
        -0.543218731880188,
        -0.47030913829803467
      ],
      "type": "VEC3"
    },
    {
      "bufferView": 2,
      "byteOffset": 3931920,
      "componentType": 5126,
      "count": 65532,
      "max": [
        0.9999992251396179,
        0.9999988675117493,
        0.9998696446418762
      ],
      "min": [
        -0.9998899102210999,
        -0.9999551773071289,
        -1.0
      ],
      "type": "VEC3"
    },
    {
      "bufferView": 1,
      "byteOffset": 1048512,
      "componentType": 5126,
      "count": 65532,
      "max": [
        0.7281494140625,
        0.9996337890625
      ],
      "min": [
        0.0003662109375,
        0.3031005859375
      ],
      "type": "VEC2"
    },
    {
      "bufferView": 0,
      "byteOffset": 1407216,
      "componentType": 5125,
      "count": 143796,
      "type": "SCALAR"
    },
    {
      "bufferView": 2,
      "byteOffset": 4718304,
      "componentType": 5126,
      "count": 61554,
      "max": [
        0.5895575881004333,
        0.2387787103652954,
        0.3372933864593506
      ],
      "min": [
        -1.4112653732299805,
        -0.9694745540618896,
        -1.0064185857772827
      ],
      "type": "VEC3"
    },
    {
      "bufferView": 2,
      "byteOffset": 5456952,
      "componentType": 5126,
      "count": 61554,
      "max": [
        0.9998189806938171,
        1.0,
        0.9999903440475464
      ],
      "min": [
        -1.0,
        -1.0,
        -0.9999975562095642
      ],
      "type": "VEC3"
    },
    {
      "bufferView": 1,
      "byteOffset": 1572768,
      "componentType": 5126,
      "count": 61554,
      "max": [
        0.7047119140625,
        0.9761962890625
      ],
      "min": [
        0.0218505859375,
        0.3265380859375
      ],
      "type": "VEC2"
    },
    {
      "bufferView": 0,
      "byteOffset": 1982400,
      "componentType": 5125,
      "count": 104457,
      "type": "SCALAR"
    }
  ],
  "asset": {
    "extras": {
      "author": "PHORIA - TCDC (https://sketchfab.com/scann3d)",
      "license": "CC-BY-4.0 (http://creativecommons.org/licenses/by/4.0/)",
      "source": "https://sketchfab.com/3d-models/daniel-freen-photographer-5429c5c1852e47b3bacf1f1e52d5e50b",
      "title": "Daniel Freen ~Photographer"
    },
    "generator": "Sketchfab-12.68.0",
    "version": "2.0"
  },
  "bufferViews": [
    {
      "buffer": 0,
      "byteLength": 2400228,
      "name": "floatBufferViews",
      "target": 34963
    },
    {
      "buffer": 0,
      "byteLength": 2065200,
      "byteOffset": 2400228,
      "byteStride": 8,
      "name": "floatBufferViews",
      "target": 34962
    },
    {
      "buffer": 0,
      "byteLength": 6195600,
      "byteOffset": 4465428,
      "byteStride": 12,
      "name": "floatBufferViews",
      "target": 34962
    }
  ],
  "buffers": [
    {
      "byteLength": 10661028,
      "uri": "scene.bin"
    }
  ],
  "extensionsUsed": [
    "KHR_materials_unlit"
  ],
  "images": [
    {
      "uri": "textures/material_0_baseColor.jpeg"
    }
  ],
  "materials": [
    {
      "doubleSided": true,
      "extensions": {
        "KHR_materials_unlit": {}
      },
      "name": "material_0",
      "pbrMetallicRoughness": {
        "baseColorTexture": {
          "index": 0
        },
        "metallicFactor": 0.0
      }
    }
  ],
  "meshes": [
    {
      "name": "Object_0",
      "primitives": [
        {
          "attributes": {
            "NORMAL": 1,
            "POSITION": 0,
            "TEXCOORD_0": 2
          },
          "indices": 3,
          "material": 0,
          "mode": 4
        }
      ]
    },
    {
      "name": "Object_1",
      "primitives": [
        {
          "attributes": {
            "NORMAL": 5,
            "POSITION": 4,
            "TEXCOORD_0": 6
          },
          "indices": 7,
          "material": 0,
          "mode": 4
        }
      ]
    },
    {
      "name": "Object_2",
      "primitives": [
        {
          "attributes": {
            "NORMAL": 9,
            "POSITION": 8,
            "TEXCOORD_0": 10
          },
          "indices": 11,
          "material": 0,
          "mode": 4
        }
      ]
    },
    {
      "name": "Object_3",
      "primitives": [
        {
          "attributes": {
            "NORMAL": 13,
            "POSITION": 12,
            "TEXCOORD_0": 14
          },
          "indices": 15,
          "material": 0,
          "mode": 4
        }
      ]
    }
  ],
  "nodes": [
    {
      "children": [
        1
      ],
      "matrix": [
        1.0,
        0.0,
        0.0,
        0.0,
        0.0,
        2.220446049250313e-16,
        -1.0,
        0.0,
        0.0,
        1.0,
        2.220446049250313e-16,
        0.0,
        0.0,
        0.0,
        0.0,
        1.0
      ],
      "name": "Sketchfab_model"
    },
    {
      "children": [
        2,
        3,
        4,
        5
      ],
      "name": "model_mesh.obj.cleaner"
    },
    {
      "mesh": 0,
      "name": "Object_2"
    },
    {
      "mesh": 1,
      "name": "Object_3"
    },
    {
      "mesh": 2,
      "name": "Object_4"
    },
    {
      "mesh": 3,
      "name": "Object_5"
    }
  ],
  "samplers": [
    {
      "magFilter": 9729,
      "minFilter": 9987,
      "wrapS": 10497,
      "wrapT": 10497
    }
  ],
  "scene": 0,
  "scenes": [
    {
      "name": "Sketchfab_Scene",
      "nodes": [
        0
      ]
    }
  ],
  "textures": [
    {
      "sampler": 0,
      "source": 0
    }
  ]
}
